<svg height="1870pt" viewBox="0.00 0.00 731.50 1870.00" width="732pt" xmlns="http://www.w3.org/2000/svg" xmlns:xlink="http://www.w3.org/1999/xlink">
<g class="graph" id="graph0" transform="scale(1 1) rotate(0) translate(4 1866)">
<title>G</title>
<polygon fill="white" points="-4,4 -4,-1866 727.5,-1866 727.5,4 -4,4" stroke="none"/>
<!-- 1448608338104 -->
<g class="node" id="node1"><title>1448608338104</title>
<polygon fill="none" points="164.5,-1825.5 164.5,-1861.5 286.5,-1861.5 286.5,-1825.5 164.5,-1825.5" stroke="black"/>
<text font-family="Times New Roman,serif" font-size="14.00" text-anchor="middle" x="225.5" y="-1839.8">frame0: InputLayer</text>
</g>
<!-- 1448608553280 -->
<g class="node" id="node3"><title>1448608553280</title>
<polygon fill="none" points="241.5,-1752.5 241.5,-1788.5 349.5,-1788.5 349.5,-1752.5 241.5,-1752.5" stroke="black"/>
<text font-family="Times New Roman,serif" font-size="14.00" text-anchor="middle" x="295.5" y="-1766.8">model_1: Model</text>
</g>
<!-- 1448608338104&#45;&gt;1448608553280 -->
<g class="edge" id="edge1"><title>1448608338104-&gt;1448608553280</title>
<path d="M242.445,-1825.31C251.215,-1816.42 262.068,-1805.41 271.669,-1795.67" fill="none" stroke="black"/>
<polygon fill="black" points="274.183,-1798.11 278.711,-1788.53 269.198,-1793.19 274.183,-1798.11" stroke="black"/>
</g>
<!-- 1448550029016 -->
<g class="node" id="node2"><title>1448550029016</title>
<polygon fill="none" points="304.5,-1825.5 304.5,-1861.5 426.5,-1861.5 426.5,-1825.5 304.5,-1825.5" stroke="black"/>
<text font-family="Times New Roman,serif" font-size="14.00" text-anchor="middle" x="365.5" y="-1839.8">frame1: InputLayer</text>
</g>
<!-- 1448550029016&#45;&gt;1448608553280 -->
<g class="edge" id="edge2"><title>1448550029016-&gt;1448608553280</title>
<path d="M348.555,-1825.31C339.785,-1816.42 328.932,-1805.41 319.331,-1795.67" fill="none" stroke="black"/>
<polygon fill="black" points="321.802,-1793.19 312.289,-1788.53 316.817,-1798.11 321.802,-1793.19" stroke="black"/>
</g>
<!-- 1448608265832 -->
<g class="node" id="node4"><title>1448608265832</title>
<polygon fill="none" points="18,-1679.5 18,-1715.5 191,-1715.5 191,-1679.5 18,-1679.5" stroke="black"/>
<text font-family="Times New Roman,serif" font-size="14.00" text-anchor="middle" x="104.5" y="-1693.8">concatenate_1: Concatenate</text>
</g>
<!-- 1448608553280&#45;&gt;1448608265832 -->
<g class="edge" id="edge3"><title>1448608553280-&gt;1448608265832</title>
<path d="M249.751,-1752.49C222.781,-1742.47 188.467,-1729.71 159.963,-1719.12" fill="none" stroke="black"/>
<polygon fill="black" points="161.131,-1715.82 150.538,-1715.61 158.692,-1722.38 161.131,-1715.82" stroke="black"/>
</g>
<!-- 1448550436480 -->
<g class="node" id="node8"><title>1448550436480</title>
<polygon fill="none" points="209.5,-1679.5 209.5,-1715.5 381.5,-1715.5 381.5,-1679.5 209.5,-1679.5" stroke="black"/>
<text font-family="Times New Roman,serif" font-size="14.00" text-anchor="middle" x="295.5" y="-1693.8">cropping2d_1: Cropping2D</text>
</g>
<!-- 1448608553280&#45;&gt;1448550436480 -->
<g class="edge" id="edge8"><title>1448608553280-&gt;1448550436480</title>
<path d="M295.5,-1752.31C295.5,-1744.29 295.5,-1734.55 295.5,-1725.57" fill="none" stroke="black"/>
<polygon fill="black" points="299,-1725.53 295.5,-1715.53 292,-1725.53 299,-1725.53" stroke="black"/>
</g>
<!-- 1448583484136 -->
<g class="node" id="node13"><title>1448583484136</title>
<polygon fill="none" points="209.5,-1387.5 209.5,-1423.5 381.5,-1423.5 381.5,-1387.5 209.5,-1387.5" stroke="black"/>
<text font-family="Times New Roman,serif" font-size="14.00" text-anchor="middle" x="295.5" y="-1401.8">cropping2d_2: Cropping2D</text>
</g>
<!-- 1448608553280&#45;&gt;1448583484136 -->
<g class="edge" id="edge14"><title>1448608553280-&gt;1448583484136</title>
<path d="M523.5,-1696.5C549.385,-1678.45 533.769,-1655.34 523.5,-1625.5" fill="none" stroke="black"/>
<path d="M349.824,-1762.14C398.791,-1753.41 470.957,-1735.13 523.5,-1698.5" fill="none" stroke="black"/>
<path d="M409.5,-1550.5C373.674,-1517.87 343.143,-1536.09 314.5,-1497 301.048,-1478.64 296.668,-1452.87 295.437,-1433.52" fill="none" stroke="black"/>
<polygon fill="black" points="298.934,-1433.37 295.04,-1423.52 291.94,-1433.65 298.934,-1433.37" stroke="black"/>
<path d="M523.5,-1623.5C507.73,-1577.68 467.694,-1598.49 428.5,-1570 419.214,-1563.25 417.78,-1560.45 409.5,-1552.5" fill="none" stroke="black"/>
</g>
<!-- 1448601640184 -->
<g class="node" id="node18"><title>1448601640184</title>
<polygon fill="none" points="323.5,-1460.5 323.5,-1496.5 495.5,-1496.5 495.5,-1460.5 323.5,-1460.5" stroke="black"/>
<text font-family="Times New Roman,serif" font-size="14.00" text-anchor="middle" x="409.5" y="-1474.8">cropping2d_3: Cropping2D</text>
</g>
<!-- 1448608553280&#45;&gt;1448601640184 -->
<g class="edge" id="edge20"><title>1448608553280-&gt;1448601640184</title>
<path d="M409.5,-1550.5C397.727,-1539.78 397.836,-1521.8 400.833,-1506.61" fill="none" stroke="black"/>
<polygon fill="black" points="404.288,-1507.22 403.259,-1496.67 397.488,-1505.56 404.288,-1507.22" stroke="black"/>
</g>
<!-- 1448551987464 -->
<g class="node" id="node23"><title>1448551987464</title>
<polygon fill="none" points="437.5,-1533.5 437.5,-1569.5 609.5,-1569.5 609.5,-1533.5 437.5,-1533.5" stroke="black"/>
<text font-family="Times New Roman,serif" font-size="14.00" text-anchor="middle" x="523.5" y="-1547.8">cropping2d_4: Cropping2D</text>
</g>
<!-- 1448608553280&#45;&gt;1448551987464 -->
<g class="edge" id="edge26"><title>1448608553280-&gt;1448551987464</title>
<path d="M523.5,-1623.5C518.72,-1609.61 518.39,-1593.27 519.402,-1579.77" fill="none" stroke="black"/>
<polygon fill="black" points="522.902,-1579.96 520.443,-1569.65 515.938,-1579.24 522.902,-1579.96" stroke="black"/>
</g>
<!-- 1448578247368 -->
<g class="node" id="node28"><title>1448578247368</title>
<polygon fill="none" points="551.5,-1606.5 551.5,-1642.5 723.5,-1642.5 723.5,-1606.5 551.5,-1606.5" stroke="black"/>
<text font-family="Times New Roman,serif" font-size="14.00" text-anchor="middle" x="637.5" y="-1620.8">cropping2d_5: Cropping2D</text>
</g>
<!-- 1448608553280&#45;&gt;1448578247368 -->
<g class="edge" id="edge32"><title>1448608553280-&gt;1448578247368</title>
<path d="M523.5,-1696.5C548.152,-1679.31 576.879,-1661.43 599.328,-1647.92" fill="none" stroke="black"/>
<polygon fill="black" points="601.13,-1650.92 607.911,-1642.78 597.534,-1644.91 601.13,-1650.92" stroke="black"/>
</g>
<!-- 1448608267232 -->
<g class="node" id="node5"><title>1448608267232</title>
<polygon fill="none" points="37.5,-1606.5 37.5,-1642.5 171.5,-1642.5 171.5,-1606.5 37.5,-1606.5" stroke="black"/>
<text font-family="Times New Roman,serif" font-size="14.00" text-anchor="middle" x="104.5" y="-1620.8">conv2d_11: Conv2D</text>
</g>
<!-- 1448608265832&#45;&gt;1448608267232 -->
<g class="edge" id="edge5"><title>1448608265832-&gt;1448608267232</title>
<path d="M104.5,-1679.31C104.5,-1671.29 104.5,-1661.55 104.5,-1652.57" fill="none" stroke="black"/>
<polygon fill="black" points="108,-1652.53 104.5,-1642.53 101,-1652.53 108,-1652.53" stroke="black"/>
</g>
<!-- 1448551787264 -->
<g class="node" id="node6"><title>1448551787264</title>
<polygon fill="none" points="37.5,-1533.5 37.5,-1569.5 171.5,-1569.5 171.5,-1533.5 37.5,-1533.5" stroke="black"/>
<text font-family="Times New Roman,serif" font-size="14.00" text-anchor="middle" x="104.5" y="-1547.8">conv2d_12: Conv2D</text>
</g>
<!-- 1448608267232&#45;&gt;1448551787264 -->
<g class="edge" id="edge6"><title>1448608267232-&gt;1448551787264</title>
<path d="M104.5,-1606.31C104.5,-1598.29 104.5,-1588.55 104.5,-1579.57" fill="none" stroke="black"/>
<polygon fill="black" points="108,-1579.53 104.5,-1569.53 101,-1579.53 108,-1579.53" stroke="black"/>
</g>
<!-- 1448603342552 -->
<g class="node" id="node7"><title>1448603342552</title>
<polygon fill="none" points="0,-1460.5 0,-1496.5 209,-1496.5 209,-1460.5 0,-1460.5" stroke="black"/>
<text font-family="Times New Roman,serif" font-size="14.00" text-anchor="middle" x="104.5" y="-1474.8">up_sampling2d_1: UpSampling2D</text>
</g>
<!-- 1448551787264&#45;&gt;1448603342552 -->
<g class="edge" id="edge7"><title>1448551787264-&gt;1448603342552</title>
<path d="M104.5,-1533.31C104.5,-1525.29 104.5,-1515.55 104.5,-1506.57" fill="none" stroke="black"/>
<polygon fill="black" points="108,-1506.53 104.5,-1496.53 101,-1506.53 108,-1506.53" stroke="black"/>
</g>
<!-- 1448550421112 -->
<g class="node" id="node9"><title>1448550421112</title>
<polygon fill="none" points="18,-1387.5 18,-1423.5 191,-1423.5 191,-1387.5 18,-1387.5" stroke="black"/>
<text font-family="Times New Roman,serif" font-size="14.00" text-anchor="middle" x="104.5" y="-1401.8">concatenate_2: Concatenate</text>
</g>
<!-- 1448603342552&#45;&gt;1448550421112 -->
<g class="edge" id="edge9"><title>1448603342552-&gt;1448550421112</title>
<path d="M104.5,-1460.31C104.5,-1452.29 104.5,-1442.55 104.5,-1433.57" fill="none" stroke="black"/>
<polygon fill="black" points="108,-1433.53 104.5,-1423.53 101,-1433.53 108,-1433.53" stroke="black"/>
</g>
<!-- 1448550436480&#45;&gt;1448550421112 -->
<g class="edge" id="edge10"><title>1448550436480-&gt;1448550421112</title>
<path d="M294.381,-1679.37C290.754,-1637.03 275.895,-1526.1 217.5,-1460 205.253,-1446.14 188.638,-1435.58 171.92,-1427.65" fill="none" stroke="black"/>
<polygon fill="black" points="173.207,-1424.4 162.649,-1423.52 170.357,-1430.79 173.207,-1424.4" stroke="black"/>
</g>
<!-- 1448550422176 -->
<g class="node" id="node10"><title>1448550422176</title>
<polygon fill="none" points="44.5,-1314.5 44.5,-1350.5 178.5,-1350.5 178.5,-1314.5 44.5,-1314.5" stroke="black"/>
<text font-family="Times New Roman,serif" font-size="14.00" text-anchor="middle" x="111.5" y="-1328.8">conv2d_13: Conv2D</text>
</g>
<!-- 1448550421112&#45;&gt;1448550422176 -->
<g class="edge" id="edge11"><title>1448550421112-&gt;1448550422176</title>
<path d="M106.195,-1387.31C106.986,-1379.29 107.946,-1369.55 108.831,-1360.57" fill="none" stroke="black"/>
<polygon fill="black" points="112.323,-1360.82 109.821,-1350.53 105.357,-1360.14 112.323,-1360.82" stroke="black"/>
</g>
<!-- 1448603580008 -->
<g class="node" id="node11"><title>1448603580008</title>
<polygon fill="none" points="68.5,-1241.5 68.5,-1277.5 202.5,-1277.5 202.5,-1241.5 68.5,-1241.5" stroke="black"/>
<text font-family="Times New Roman,serif" font-size="14.00" text-anchor="middle" x="135.5" y="-1255.8">conv2d_14: Conv2D</text>
</g>
<!-- 1448550422176&#45;&gt;1448603580008 -->
<g class="edge" id="edge12"><title>1448550422176-&gt;1448603580008</title>
<path d="M117.31,-1314.31C120.051,-1306.2 123.387,-1296.34 126.449,-1287.28" fill="none" stroke="black"/>
<polygon fill="black" points="129.857,-1288.12 129.744,-1277.53 123.226,-1285.88 129.857,-1288.12" stroke="black"/>
</g>
<!-- 1448583264184 -->
<g class="node" id="node12"><title>1448583264184</title>
<polygon fill="none" points="43,-1168.5 43,-1204.5 252,-1204.5 252,-1168.5 43,-1168.5" stroke="black"/>
<text font-family="Times New Roman,serif" font-size="14.00" text-anchor="middle" x="147.5" y="-1182.8">up_sampling2d_2: UpSampling2D</text>
</g>
<!-- 1448603580008&#45;&gt;1448583264184 -->
<g class="edge" id="edge13"><title>1448603580008-&gt;1448583264184</title>
<path d="M138.405,-1241.31C139.761,-1233.29 141.407,-1223.55 142.925,-1214.57" fill="none" stroke="black"/>
<polygon fill="black" points="146.406,-1214.97 144.622,-1204.53 139.504,-1213.81 146.406,-1214.97" stroke="black"/>
</g>
<!-- 1448583483968 -->
<g class="node" id="node14"><title>1448583483968</title>
<polygon fill="none" points="190,-1095.5 190,-1131.5 363,-1131.5 363,-1095.5 190,-1095.5" stroke="black"/>
<text font-family="Times New Roman,serif" font-size="14.00" text-anchor="middle" x="276.5" y="-1109.8">concatenate_3: Concatenate</text>
</g>
<!-- 1448583264184&#45;&gt;1448583483968 -->
<g class="edge" id="edge15"><title>1448583264184-&gt;1448583483968</title>
<path d="M178.399,-1168.49C195.822,-1158.9 217.784,-1146.82 236.508,-1136.51" fill="none" stroke="black"/>
<polygon fill="black" points="238.333,-1139.5 245.406,-1131.61 234.958,-1133.37 238.333,-1139.5" stroke="black"/>
</g>
<!-- 1448583484136&#45;&gt;1448583483968 -->
<g class="edge" id="edge16"><title>1448583484136-&gt;1448583483968</title>
<path d="M294.368,-1387.23C291.187,-1338.67 282.145,-1200.67 278.284,-1141.73" fill="none" stroke="black"/>
<polygon fill="black" points="281.772,-1141.43 277.626,-1131.68 274.787,-1141.89 281.772,-1141.43" stroke="black"/>
</g>
<!-- 1448601484760 -->
<g class="node" id="node15"><title>1448601484760</title>
<polygon fill="none" points="209.5,-1022.5 209.5,-1058.5 343.5,-1058.5 343.5,-1022.5 209.5,-1022.5" stroke="black"/>
<text font-family="Times New Roman,serif" font-size="14.00" text-anchor="middle" x="276.5" y="-1036.8">conv2d_15: Conv2D</text>
</g>
<!-- 1448583483968&#45;&gt;1448601484760 -->
<g class="edge" id="edge17"><title>1448583483968-&gt;1448601484760</title>
<path d="M276.5,-1095.31C276.5,-1087.29 276.5,-1077.55 276.5,-1068.57" fill="none" stroke="black"/>
<polygon fill="black" points="280,-1068.53 276.5,-1058.53 273,-1068.53 280,-1068.53" stroke="black"/>
</g>
<!-- 1448601484312 -->
<g class="node" id="node16"><title>1448601484312</title>
<polygon fill="none" points="209.5,-949.5 209.5,-985.5 343.5,-985.5 343.5,-949.5 209.5,-949.5" stroke="black"/>
<text font-family="Times New Roman,serif" font-size="14.00" text-anchor="middle" x="276.5" y="-963.8">conv2d_16: Conv2D</text>
</g>
<!-- 1448601484760&#45;&gt;1448601484312 -->
<g class="edge" id="edge18"><title>1448601484760-&gt;1448601484312</title>
<path d="M276.5,-1022.31C276.5,-1014.29 276.5,-1004.55 276.5,-995.569" fill="none" stroke="black"/>
<polygon fill="black" points="280,-995.529 276.5,-985.529 273,-995.529 280,-995.529" stroke="black"/>
</g>
<!-- 1448601606072 -->
<g class="node" id="node17"><title>1448601606072</title>
<polygon fill="none" points="172,-876.5 172,-912.5 381,-912.5 381,-876.5 172,-876.5" stroke="black"/>
<text font-family="Times New Roman,serif" font-size="14.00" text-anchor="middle" x="276.5" y="-890.8">up_sampling2d_3: UpSampling2D</text>
</g>
<!-- 1448601484312&#45;&gt;1448601606072 -->
<g class="edge" id="edge19"><title>1448601484312-&gt;1448601606072</title>
<path d="M276.5,-949.313C276.5,-941.289 276.5,-931.547 276.5,-922.569" fill="none" stroke="black"/>
<polygon fill="black" points="280,-922.529 276.5,-912.529 273,-922.529 280,-922.529" stroke="black"/>
</g>
<!-- 1448601459064 -->
<g class="node" id="node19"><title>1448601459064</title>
<polygon fill="none" points="304,-803.5 304,-839.5 477,-839.5 477,-803.5 304,-803.5" stroke="black"/>
<text font-family="Times New Roman,serif" font-size="14.00" text-anchor="middle" x="390.5" y="-817.8">concatenate_4: Concatenate</text>
</g>
<!-- 1448601606072&#45;&gt;1448601459064 -->
<g class="edge" id="edge21"><title>1448601606072-&gt;1448601459064</title>
<path d="M303.806,-876.494C318.923,-867.079 337.907,-855.255 354.253,-845.075" fill="none" stroke="black"/>
<polygon fill="black" points="356.384,-847.871 363.022,-839.614 352.683,-841.929 356.384,-847.871" stroke="black"/>
</g>
<!-- 1448601640184&#45;&gt;1448601459064 -->
<g class="edge" id="edge22"><title>1448601640184-&gt;1448601459064</title>
<path d="M409.5,-1460.21C409.5,-1433.18 409.5,-1379.25 409.5,-1333.5 409.5,-1333.5 409.5,-1333.5 409.5,-966.5 409.5,-925.581 401.866,-878.679 396.276,-849.82" fill="none" stroke="black"/>
<polygon fill="black" points="399.644,-848.814 394.254,-839.693 392.78,-850.184 399.644,-848.814" stroke="black"/>
</g>
<!-- 1448601619816 -->
<g class="node" id="node20"><title>1448601619816</title>
<polygon fill="none" points="323.5,-730.5 323.5,-766.5 457.5,-766.5 457.5,-730.5 323.5,-730.5" stroke="black"/>
<text font-family="Times New Roman,serif" font-size="14.00" text-anchor="middle" x="390.5" y="-744.8">conv2d_17: Conv2D</text>
</g>
<!-- 1448601459064&#45;&gt;1448601619816 -->
<g class="edge" id="edge23"><title>1448601459064-&gt;1448601619816</title>
<path d="M390.5,-803.313C390.5,-795.289 390.5,-785.547 390.5,-776.569" fill="none" stroke="black"/>
<polygon fill="black" points="394,-776.529 390.5,-766.529 387,-776.529 394,-776.529" stroke="black"/>
</g>
<!-- 1448581647944 -->
<g class="node" id="node21"><title>1448581647944</title>
<polygon fill="none" points="323.5,-657.5 323.5,-693.5 457.5,-693.5 457.5,-657.5 323.5,-657.5" stroke="black"/>
<text font-family="Times New Roman,serif" font-size="14.00" text-anchor="middle" x="390.5" y="-671.8">conv2d_18: Conv2D</text>
</g>
<!-- 1448601619816&#45;&gt;1448581647944 -->
<g class="edge" id="edge24"><title>1448601619816-&gt;1448581647944</title>
<path d="M390.5,-730.313C390.5,-722.289 390.5,-712.547 390.5,-703.569" fill="none" stroke="black"/>
<polygon fill="black" points="394,-703.529 390.5,-693.529 387,-703.529 394,-703.529" stroke="black"/>
</g>
<!-- 1448581507896 -->
<g class="node" id="node22"><title>1448581507896</title>
<polygon fill="none" points="286,-584.5 286,-620.5 495,-620.5 495,-584.5 286,-584.5" stroke="black"/>
<text font-family="Times New Roman,serif" font-size="14.00" text-anchor="middle" x="390.5" y="-598.8">up_sampling2d_4: UpSampling2D</text>
</g>
<!-- 1448581647944&#45;&gt;1448581507896 -->
<g class="edge" id="edge25"><title>1448581647944-&gt;1448581507896</title>
<path d="M390.5,-657.313C390.5,-649.289 390.5,-639.547 390.5,-630.569" fill="none" stroke="black"/>
<polygon fill="black" points="394,-630.529 390.5,-620.529 387,-630.529 394,-630.529" stroke="black"/>
</g>
<!-- 1448551985896 -->
<g class="node" id="node24"><title>1448551985896</title>
<polygon fill="none" points="418,-511.5 418,-547.5 591,-547.5 591,-511.5 418,-511.5" stroke="black"/>
<text font-family="Times New Roman,serif" font-size="14.00" text-anchor="middle" x="504.5" y="-525.8">concatenate_5: Concatenate</text>
</g>
<!-- 1448581507896&#45;&gt;1448551985896 -->
<g class="edge" id="edge27"><title>1448581507896-&gt;1448551985896</title>
<path d="M417.806,-584.494C432.923,-575.079 451.907,-563.255 468.253,-553.075" fill="none" stroke="black"/>
<polygon fill="black" points="470.384,-555.871 477.022,-547.614 466.683,-549.929 470.384,-555.871" stroke="black"/>
</g>
<!-- 1448551987464&#45;&gt;1448551985896 -->
<g class="edge" id="edge28"><title>1448551987464-&gt;1448551985896</title>
<path d="M523.5,-1533.21C523.5,-1506.18 523.5,-1452.25 523.5,-1406.5 523.5,-1406.5 523.5,-1406.5 523.5,-674.5 523.5,-633.581 515.866,-586.679 510.276,-557.82" fill="none" stroke="black"/>
<polygon fill="black" points="513.644,-556.814 508.254,-547.693 506.78,-558.184 513.644,-556.814" stroke="black"/>
</g>
<!-- 1448552128128 -->
<g class="node" id="node25"><title>1448552128128</title>
<polygon fill="none" points="437.5,-438.5 437.5,-474.5 571.5,-474.5 571.5,-438.5 437.5,-438.5" stroke="black"/>
<text font-family="Times New Roman,serif" font-size="14.00" text-anchor="middle" x="504.5" y="-452.8">conv2d_19: Conv2D</text>
</g>
<!-- 1448551985896&#45;&gt;1448552128128 -->
<g class="edge" id="edge29"><title>1448551985896-&gt;1448552128128</title>
<path d="M504.5,-511.313C504.5,-503.289 504.5,-493.547 504.5,-484.569" fill="none" stroke="black"/>
<polygon fill="black" points="508,-484.529 504.5,-474.529 501,-484.529 508,-484.529" stroke="black"/>
</g>
<!-- 1448552125944 -->
<g class="node" id="node26"><title>1448552125944</title>
<polygon fill="none" points="437.5,-365.5 437.5,-401.5 571.5,-401.5 571.5,-365.5 437.5,-365.5" stroke="black"/>
<text font-family="Times New Roman,serif" font-size="14.00" text-anchor="middle" x="504.5" y="-379.8">conv2d_20: Conv2D</text>
</g>
<!-- 1448552128128&#45;&gt;1448552125944 -->
<g class="edge" id="edge30"><title>1448552128128-&gt;1448552125944</title>
<path d="M504.5,-438.313C504.5,-430.289 504.5,-420.547 504.5,-411.569" fill="none" stroke="black"/>
<polygon fill="black" points="508,-411.529 504.5,-401.529 501,-411.529 508,-411.529" stroke="black"/>
</g>
<!-- 1448576547248 -->
<g class="node" id="node27"><title>1448576547248</title>
<polygon fill="none" points="400,-292.5 400,-328.5 609,-328.5 609,-292.5 400,-292.5" stroke="black"/>
<text font-family="Times New Roman,serif" font-size="14.00" text-anchor="middle" x="504.5" y="-306.8">up_sampling2d_5: UpSampling2D</text>
</g>
<!-- 1448552125944&#45;&gt;1448576547248 -->
<g class="edge" id="edge31"><title>1448552125944-&gt;1448576547248</title>
<path d="M504.5,-365.313C504.5,-357.289 504.5,-347.547 504.5,-338.569" fill="none" stroke="black"/>
<polygon fill="black" points="508,-338.529 504.5,-328.529 501,-338.529 508,-338.529" stroke="black"/>
</g>
<!-- 1448578247648 -->
<g class="node" id="node29"><title>1448578247648</title>
<polygon fill="none" points="484,-219.5 484,-255.5 657,-255.5 657,-219.5 484,-219.5" stroke="black"/>
<text font-family="Times New Roman,serif" font-size="14.00" text-anchor="middle" x="570.5" y="-233.8">concatenate_6: Concatenate</text>
</g>
<!-- 1448576547248&#45;&gt;1448578247648 -->
<g class="edge" id="edge33"><title>1448576547248-&gt;1448578247648</title>
<path d="M520.477,-292.313C528.665,-283.505 538.778,-272.625 547.764,-262.958" fill="none" stroke="black"/>
<polygon fill="black" points="550.425,-265.236 554.67,-255.529 545.298,-260.47 550.425,-265.236" stroke="black"/>
</g>
<!-- 1448578247368&#45;&gt;1448578247648 -->
<g class="edge" id="edge34"><title>1448578247368-&gt;1448578247648</title>
<path d="M637.5,-1606.21C637.5,-1579.18 637.5,-1525.25 637.5,-1479.5 637.5,-1479.5 637.5,-1479.5 637.5,-382.5 637.5,-341.307 636.125,-328.742 617.5,-292 612.193,-281.531 604.358,-271.469 596.601,-262.952" fill="none" stroke="black"/>
<polygon fill="black" points="599.012,-260.409 589.573,-255.597 593.951,-265.245 599.012,-260.409" stroke="black"/>
</g>
<!-- 1448578226216 -->
<g class="node" id="node30"><title>1448578226216</title>
<polygon fill="none" points="503.5,-146.5 503.5,-182.5 637.5,-182.5 637.5,-146.5 503.5,-146.5" stroke="black"/>
<text font-family="Times New Roman,serif" font-size="14.00" text-anchor="middle" x="570.5" y="-160.8">conv2d_21: Conv2D</text>
</g>
<!-- 1448578247648&#45;&gt;1448578226216 -->
<g class="edge" id="edge35"><title>1448578247648-&gt;1448578226216</title>
<path d="M570.5,-219.313C570.5,-211.289 570.5,-201.547 570.5,-192.569" fill="none" stroke="black"/>
<polygon fill="black" points="574,-192.529 570.5,-182.529 567,-192.529 574,-192.529" stroke="black"/>
</g>
<!-- 1448578225712 -->
<g class="node" id="node31"><title>1448578225712</title>
<polygon fill="none" points="503.5,-73.5 503.5,-109.5 637.5,-109.5 637.5,-73.5 503.5,-73.5" stroke="black"/>
<text font-family="Times New Roman,serif" font-size="14.00" text-anchor="middle" x="570.5" y="-87.8">conv2d_22: Conv2D</text>
</g>
<!-- 1448578226216&#45;&gt;1448578225712 -->
<g class="edge" id="edge36"><title>1448578226216-&gt;1448578225712</title>
<path d="M570.5,-146.313C570.5,-138.289 570.5,-128.547 570.5,-119.569" fill="none" stroke="black"/>
<polygon fill="black" points="574,-119.529 570.5,-109.529 567,-119.529 574,-119.529" stroke="black"/>
</g>
<!-- 1448580143200 -->
<g class="node" id="node32"><title>1448580143200</title>
<polygon fill="none" points="503.5,-0.5 503.5,-36.5 637.5,-36.5 637.5,-0.5 503.5,-0.5" stroke="black"/>
<text font-family="Times New Roman,serif" font-size="14.00" text-anchor="middle" x="570.5" y="-14.8">conv2d_23: Conv2D</text>
</g>
<!-- 1448578225712&#45;&gt;1448580143200 -->
<g class="edge" id="edge37"><title>1448578225712-&gt;1448580143200</title>
<path d="M570.5,-73.3129C570.5,-65.2895 570.5,-55.5475 570.5,-46.5691" fill="none" stroke="black"/>
<polygon fill="black" points="574,-46.5288 570.5,-36.5288 567,-46.5289 574,-46.5288" stroke="black"/>
</g>
</g>
</svg>